<?xml version="1.0" standalone="no"?><!DOCTYPE svg PUBLIC "-//W3C//DTD SVG 1.1//EN" "http://www.w3.org/Graphics/SVG/1.1/DTD/svg11.dtd"><svg t="1764264452077" class="icon" viewBox="0 0 1025 1024" version="1.1" xmlns="http://www.w3.org/2000/svg" p-id="7854" xmlns:xlink="http://www.w3.org/1999/xlink" width="200.1953125" height="200"><path d="M512.751928 1023.098834C229.829453 1023.098834 0.475265 794.170547 0.475265 511.773848 0.475265 229.377148 229.829453 0.448861 512.751928 0.448861s512.276664 228.928287 512.276664 511.324987c0 282.3967-229.354188 511.324987-512.276664 511.324986z m137.675193-693.151569c56.316556 37.533274 93.84983 100.077632 100.110924 175.179766 18.752287 0 37.533274 6.261094 56.32 12.523337-6.262242-100.114368-56.32-187.703103-137.648789-237.794153-6.262242 12.523336-6.262242 31.306619-18.782135 50.09105z m-37.533273 412.90504c-31.274475 12.490045-62.57765 25.013381-100.114368 25.013381-37.533274 0-68.839892-6.262242-100.110924-25.013381-12.519892 18.751139-25.009937 31.274475-37.533273 43.795516 43.795516 25.013381 87.591031 37.533274 137.645345 37.533273 50.057758 0 100.114368-12.519892 137.648789-37.533273-12.525632-12.52104-25.015677-25.044377-37.535569-43.795516zM274.988771 505.061596c6.261094-75.067695 43.795516-137.61435 100.110924-175.178618l-18.782134-56.284413c-81.328789 50.054314-131.386547 143.906439-137.645346 244.018511 18.782135-6.262242 37.564269-12.52104 56.316556-12.52104v-0.03444zM262.858045 532.663677c-69.029309 0.214673-124.926852 56.128287-125.124305 125.155301 0.214673 69.016682 56.107623 124.914224 125.124305 125.124305 69.016682-0.211229 124.91078-56.107623 125.124305-125.124305-0.196305-69.027013-56.096143-124.941776-125.124305-125.155301z m249.921435-402.941704c-69.013238 0.214673-124.91078 56.108771-125.120861 125.124305 0.192861 69.027013 56.094996 124.940628 125.120861 125.156448 69.029309-0.214673 124.930296-56.128287 125.124305-125.156448-0.214673-69.015534-56.107623-124.91078-125.124305-125.124305z m231.497471 406.679534c-69.027013 0.211229-124.928 56.128287-125.120861 125.1553 0.211229 69.016682 56.107623 124.91078 125.120861 125.124305 69.015534-0.214673 124.91078-56.107623 125.124305-125.124305-0.194009-69.025865-56.093848-124.944072-125.124305-125.1553z" fill="#CCCCCC" p-id="7855"></path></svg>