<?xml version="1.0" standalone="no"?><!DOCTYPE svg PUBLIC "-//W3C//DTD SVG 1.1//EN" "http://www.w3.org/Graphics/SVG/1.1/DTD/svg11.dtd"><svg t="1764643338552" class="icon" viewBox="0 0 1024 1024" version="1.1" xmlns="http://www.w3.org/2000/svg" p-id="4140" xmlns:xlink="http://www.w3.org/1999/xlink" width="256" height="256"><path d="M512 512m-64 0a64 64 0 1 0 128 0 64 64 0 1 0-128 0Z" p-id="4141"></path><path d="M652.373333 773.12L597.333333 715.946667l-2.986666-2.986667-54.186667-54.186667a173.653333 173.653333 0 0 1-26.026667 2.56A149.333333 149.333333 0 0 1 362.666667 512a173.653333 173.653333 0 0 1 2.56-26.026667l-85.333334-85.333333L213.333333 335.786667a677.973333 677.973333 0 0 0-122.453333 154.88 42.666667 42.666667 0 0 0 0 42.666666c26.88 46.506667 170.666667 277.333333 421.973333 277.333334h10.666667a404.48 404.48 0 0 0 137.813333-28.586667zM366.506667 245.76l119.466666 119.466667A173.653333 173.653333 0 0 1 512 362.666667a149.333333 149.333333 0 0 1 149.333333 149.333333 173.653333 173.653333 0 0 1-2.56 26.026667l114.346667 114.346666 35.84 35.84a677.973333 677.973333 0 0 0 124.16-154.88 42.666667 42.666667 0 0 0 0-42.666666c-27.306667-47.36-177.493333-285.013333-432.64-277.333334a404.48 404.48 0 0 0-137.813333 28.586667zM883.626667 823.04L828.16 768l-85.333333-85.333333-406.186667-406.613334L273.92 213.333333 200.96 140.373333a42.666667 42.666667 0 0 0-60.586667 60.586667L235.946667 298.666667l74.666666 72.533333 311.893334 311.466667 2.986666 2.986666L682.666667 742.826667l25.173333 25.173333 115.2 115.626667a42.666667 42.666667 0 0 0 60.586667 0 42.666667 42.666667 0 0 0 0-60.586667z" p-id="4142"></path></svg>