<?xml version="1.0" standalone="no"?><!DOCTYPE svg PUBLIC "-//W3C//DTD SVG 1.1//EN" "http://www.w3.org/Graphics/SVG/1.1/DTD/svg11.dtd"><svg t="1764643345802" class="icon" viewBox="0 0 1024 1024" version="1.1" xmlns="http://www.w3.org/2000/svg" p-id="4302" xmlns:xlink="http://www.w3.org/1999/xlink" width="256" height="256"><path d="M512 512m-64 0a64 64 0 1 0 128 0 64 64 0 1 0-128 0Z" p-id="4303"></path><path d="M933.12 490.666667c-27.306667-47.36-177.493333-285.013333-432.64-277.333334-235.946667 5.973333-372.48 213.333333-409.6 277.333334a42.666667 42.666667 0 0 0 0 42.666666c26.88 46.506667 170.666667 277.333333 421.973333 277.333334h10.666667c235.946667-5.973333 372.906667-213.333333 409.6-277.333334a42.666667 42.666667 0 0 0 0-42.666666z m-421.12 170.666666a149.333333 149.333333 0 1 1 149.333333-149.333333 149.333333 149.333333 0 0 1-149.333333 149.333333z" p-id="4304"></path></svg>