<?xml version="1.0" standalone="no"?><!DOCTYPE svg PUBLIC "-//W3C//DTD SVG 1.1//EN" "http://www.w3.org/Graphics/SVG/1.1/DTD/svg11.dtd"><svg t="1764637976935" class="icon" viewBox="0 0 1024 1024" version="1.1" xmlns="http://www.w3.org/2000/svg" p-id="12058" xmlns:xlink="http://www.w3.org/1999/xlink" width="256" height="256"><path d="M900.022857 258.413714h-1.609143c-0.804571 0-0.804571 0-1.609143-0.804571-0.804571 0-0.804571-0.804571-1.609142-0.804572S894.390857 256 893.586286 256a7.277714 7.277714 0 0 1-2.377143-5.595429c0-2.413714 0.804571-4.022857 2.377143-5.595428 0-0.804571 0.804571-0.804571 1.609143-0.804572 0 0 0.804571-0.804571 1.609142-0.804571s0.804571 0 1.609143-0.804571a6.436571 6.436571 0 0 1 7.204572 2.413714 7.277714 7.277714 0 0 1 2.377143 5.595428c0 0.804571 0 2.413714-0.804572 3.181715 0 0.804571-0.804571 1.609143-1.572571 2.413714a8.630857 8.630857 0 0 1-5.632 2.413714zM853.577143 232.813714c-3.986286-2.413714-4.754286-7.204571-3.181714-11.227428 2.413714-3.986286 7.204571-4.754286 11.190857-3.181715 4.022857 2.377143 4.827429 7.204571 3.218285 11.190858a8.411429 8.411429 0 0 1-7.204571 4.022857c-1.609143 0-3.218286 0-4.022857-0.804572z m-43.154286-24.832c-4.022857-2.377143-4.827429-7.168-3.218286-11.190857 2.413714-4.022857 7.204571-4.790857 11.190858-3.181714 4.022857 2.377143 4.790857 7.204571 3.218285 11.190857a8.411429 8.411429 0 0 1-7.204571 4.022857c-0.804571 0.768-2.413714 0-4.022857-0.841143zM772.022857 184.795429h-1.609143c-0.804571 0-0.804571 0-1.609143-0.804572-0.804571 0-0.804571 0-1.609142-0.804571l-0.804572-0.804572-0.804571-0.768c0-0.804571-0.804571-0.804571-0.804572-1.609143s0-0.804571-0.768-1.609142v-1.609143-1.572572c0-0.804571 0-0.804571 0.768-1.609143 0-0.804571 0.804571-0.804571 0.804572-1.609142s0.804571-0.804571 0.804571-0.804572l0.804572-0.804571c0.804571 0 0.804571-0.768 1.609142-0.768s0.804571-0.804571 1.609143-0.804572c1.572571 0 3.181714 0 4.754286 0.804572 0.841143 0 1.645714 0.768 2.450286 1.572571 0 0.804571 0.768 0.804571 0.768 0.804572 0 0.804571 0.804571 0.804571 0.804571 1.609142s0 0.804571 0.804572 1.609143v3.181715c0 0.804571 0 0.804571-0.804572 1.609142 0 0.804571 0 0.804571-0.804571 1.609143 0 0.804571-0.768 0.804571-0.768 0.804572-0.804571 0.768-1.609143 1.572571-2.413715 1.572571-0.804571 0.804571-1.609143 0.804571-3.218285 0.804572z" fill="#1B6DC6" p-id="12059"></path><path d="M433.590857 960a7.277714 7.277714 0 0 1-5.595428-2.413714 7.277714 7.277714 0 0 1-2.377143-5.595429c0-2.377143 0.768-4.022857 2.377143-5.595428a7.716571 7.716571 0 0 1 11.190857 0 7.277714 7.277714 0 0 1 2.413714 5.595428c0 2.413714-0.804571 4.022857-2.413714 5.595429a8.630857 8.630857 0 0 1-5.595429 2.413714zM387.218286 934.4c-4.022857-2.413714-4.827429-7.204571-3.218286-11.190857 2.413714-4.022857 7.204571-4.790857 11.190857-3.218286 4.022857 2.413714 4.827429 7.204571 3.218286 11.227429a8.411429 8.411429 0 0 1-7.204572 3.986285c-1.609143 0-3.218286 0-4.022857-0.804571z m-42.422857-24.795429c-4.022857-2.413714-4.790857-7.204571-3.181715-11.190857 2.377143-4.022857 7.204571-4.827429 11.190857-3.218285 4.022857 2.413714 4.790857 7.204571 3.181715 11.190857a8.411429 8.411429 0 0 1-7.168 4.022857c-1.609143 0.804571-3.218286 0-4.022857-0.804572zM305.590857 886.418286a7.277714 7.277714 0 0 1-5.595428-2.413715 7.277714 7.277714 0 0 1-2.377143-5.595428c0-2.413714 0.768-4.022857 2.377143-5.595429 1.609143-1.609143 4.790857-2.413714 7.204571-2.413714 0.804571 0 0.804571 0 1.609143 0.804571 0.804571 0 0.804571 0.804571 1.572571 0.804572 0.804571 0 0.804571 0.804571 1.609143 0.804571a7.277714 7.277714 0 0 1 2.413714 5.595429c0 2.377143-0.804571 4.022857-2.413714 5.595428 0 0-0.804571 0.804571-1.609143 0.804572-0.768 0-0.768 0.804571-1.572571 0.804571-0.804571 0-0.804571 0.804571-1.609143 0.804572h-1.609143z" fill="#1B6DC6" p-id="12060"></path><path d="M718.409143 153.6c-0.804571 0-2.413714 0-3.218286-0.804571-0.804571-0.804571-2.377143-0.804571-3.181714-1.609143a7.277714 7.277714 0 0 1-2.413714-5.595429c0-2.377143 0.804571-4.022857 2.413714-5.595428 0.804571-0.804571 1.609143-1.609143 2.377143-1.609143a5.12 5.12 0 0 1 4.827428 0h1.572572c0.804571 0 0.804571 0.804571 1.609143 0.804571l0.804571 0.804572a7.277714 7.277714 0 0 1 2.413714 5.595428c0 2.413714-0.804571 4.022857-2.413714 5.595429 0 0.804571-0.804571 0.804571-0.804571 0.804571-0.804571 0-0.804571 0.804571-1.609143 0.804572-0.768 0-0.768 0-2.377143 0.804571zM671.195429 128c-4.022857-2.413714-4.790857-7.204571-3.181715-11.190857 2.377143-4.022857 7.204571-4.790857 11.190857-3.218286 4.022857 2.413714 4.790857 7.204571 3.181715 11.227429a8.411429 8.411429 0 0 1-7.204572 3.986285c-0.768 0-2.377143 0-3.986285-0.804571z m-42.422858-24.795429c-3.986286-2.413714-4.754286-7.204571-3.181714-11.190857 2.413714-4.022857 7.204571-4.827429 11.190857-3.218285 4.022857 2.413714 4.827429 7.204571 3.218286 11.190857a8.411429 8.411429 0 0 1-7.204571 4.022857c-0.804571 0-2.413714 0-4.022858-0.804572zM590.409143 80.018286a7.277714 7.277714 0 0 1-5.595429-2.413715c-0.804571-0.804571-0.804571-1.609143-1.609143-3.218285-0.804571-0.768-0.804571-1.572571-0.804571-3.181715 0-0.804571 0-2.413714 0.804571-3.218285 0.804571 0 0.804571-0.768 1.609143-1.572572 0.804571-0.804571 1.572571-1.609143 2.377143-1.609143 1.609143-0.804571 4.022857-0.804571 6.4 0 0.804571 0.804571 1.609143 0.804571 2.413714 1.609143 0.804571 0.804571 1.609143 1.572571 1.609143 2.377143 0 0.804571 0.804571 1.609143 0.804572 3.218286 0 0.804571 0 2.377143-0.804572 3.181714 0 0.804571-0.804571 1.609143-1.609143 2.413714-0.804571 0.804571-1.609143 1.609143-2.413714 1.609143-0.804571 0-1.572571 0.804571-3.181714 0.804572z" fill="#1B6DC6" p-id="12061"></path><path d="M251.977143 855.186286a7.277714 7.277714 0 0 1-5.558857-2.377143l-0.804572-0.804572c0-0.804571-0.804571-0.804571-0.804571-1.609142v-1.609143-1.572572c0-0.804571 0-2.413714 0.804571-3.218285 0-0.804571 0.768-1.609143 1.572572-2.377143 3.218286-3.218286 8.813714-3.218286 11.227428 0a7.277714 7.277714 0 0 1 2.377143 5.595428v1.572572c0 0.804571 0 0.804571-0.804571 1.609143 0 0.804571-0.804571 0.804571-0.804572 1.609142s-0.768 0.804571-0.768 0.804572c0 0.804571-0.804571 0.804571-0.804571 0.804571-0.804571 0-0.804571 0.768-1.609143 0.768s-0.804571 0.804571-1.609143 0.804572h-2.377143zM205.604571 829.586286c-4.022857-2.377143-4.790857-7.204571-3.218285-11.190857 2.413714-4.022857 7.204571-4.790857 11.227428-3.181715 3.986286 2.377143 4.754286 7.204571 3.181715 11.190857a8.411429 8.411429 0 0 1-7.204572 4.022858c-1.609143 0-3.181714 0-4.022857-0.841143z m-43.190857-24.795429c-4.022857-2.377143-4.827429-7.204571-3.218285-11.190857 2.413714-4.022857 7.204571-4.790857 11.190857-3.181714 4.022857 2.377143 4.827429 7.168 3.218285 11.190857a8.411429 8.411429 0 0 1-7.204571 4.022857c-0.804571 0.768-2.413714 0-4.022857-0.841143zM123.977143 781.604571a7.277714 7.277714 0 0 1-5.595429-2.413714 7.277714 7.277714 0 0 1-2.377143-5.595428v-1.609143c0-0.804571 0-0.804571 0.804572-1.572572 0-0.804571 0-0.804571 0.804571-1.609143 0-0.804571 0.768-0.804571 0.768-1.609142 2.413714-2.377143 5.632-3.181714 8.813715-1.609143 0.804571 0.804571 1.609143 0.804571 2.413714 1.609143 0 0.804571 0.804571 0.804571 0.804571 1.609142s0.804571 0.804571 0.804572 1.609143 0 0.804571 0.768 1.572572v1.609143c0 2.413714-0.768 4.022857-2.377143 5.595428-0.804571 0.804571-1.609143 1.609143-2.413714 1.609143-0.804571 0.804571-1.609143 0.804571-3.181715 0.804571z" fill="#1B6DC6" p-id="12062"></path><path d="M590.409143 72.009143l-54.418286-31.195429a5.12 5.12 0 0 0-4.790857 0L75.190857 304.018286c-4.022857 2.377143-8.009143 9.581714-8.009143 15.177143v416.804571c0 3.181714 0.804571 5.595429 2.413715 6.4l54.418285 31.195429 45.604572-86.381715 361.581714-244.004571c4.022857-2.413714 8.009143-9.618286 8.009143-15.213714V139.995429l51.2-68.022858z" fill="#FFFFFF" p-id="12063"></path><path d="M123.977143 781.604571c-1.572571 0-2.377143 0-3.986286-0.804571l-54.381714-31.195429c-0.804571 0-0.804571-0.804571-1.609143-0.804571a15.652571 15.652571 0 0 1-5.595429-11.995429V319.195429c0-8.777143 4.790857-18.395429 11.995429-21.577143L526.409143 34.377143a12.8 12.8 0 0 1 11.995428-0.804572c0.804571 0 0.804571 0 1.609143 0.804572l54.381715 31.195428c1.609143 0.804571 3.218286 3.181714 4.022857 5.595429a6.217143 6.217143 0 0 1-1.609143 6.4l-49.590857 66.377143v284.818286c0 8.777143-4.827429 18.395429-12.032 21.577142l-359.168 242.432-44.8 84.809143a8.192 8.192 0 0 1-4.827429 3.986286h-2.377143z m-48.786286-45.604571l45.604572 26.404571 41.618285-79.213714c0.804571-0.804571 1.572571-2.377143 2.377143-3.181714l361.618286-244.004572c2.377143-0.804571 4.022857-4.790857 4.022857-8.777142V139.154286c0-1.572571 0.768-3.181714 1.572571-4.790857l46.409143-61.586286-44.8-25.6L79.213714 311.186286c-1.609143 0.804571-4.022857 4.827429-4.022857 8.045714v416.768z" fill="#B8BFCA" p-id="12064"></path><path d="M121.6 772.022857V277.577143l-46.409143 26.441143c-4.022857 2.377143-7.972571 9.581714-7.972571 15.177143v416.804571c0 3.181714 0.768 5.595429 2.377143 6.4l52.004571 29.622857z" fill="#F2F4F6" p-id="12065"></path><path d="M585.581714 509.586286L129.609143 772.790857c-4.022857 2.413714-8.009143 0-8.009143-5.595428V350.390857c0-5.595429 3.181714-12.8 8.009143-15.177143l456.009143-263.204571c3.986286-2.413714 7.972571 0 7.972571 5.595428v416.804572c0 6.4-4.022857 12.8-8.009143 15.177143z" fill="#FFFFFF" p-id="12066"></path><path d="M126.390857 782.409143c-2.377143 0-4.022857-0.804571-6.4-1.609143-4.022857-2.413714-6.4-7.204571-6.4-13.604571V350.390857c0-8.777143 4.827429-18.395429 11.995429-21.577143l456.045714-263.204571c4.754286-2.413714 9.581714-2.413714 12.8-0.804572 3.949714 2.413714 6.363429 7.204571 6.363429 13.604572V495.177143c0 8.777143-4.790857 18.395429-11.995429 21.577143L132.790857 779.995429a9.069714 9.069714 0 0 1-6.4 2.413714zM585.581714 81.554286L133.595429 342.381714c-1.609143 0.804571-4.022857 4.827429-4.022858 8.045715V763.977143l452.022858-260.827429c1.609143-0.768 4.022857-4.754286 4.022857-7.972571V81.554286z" fill="#B8BFCA" p-id="12067"></path><path d="M121.6 350.390857c0-5.595429 3.218286-12.8 8.009143-15.177143l456.009143-263.204571c1.572571-0.804571 3.986286-0.804571 4.754285 0l-54.381714-31.195429a5.12 5.12 0 0 0-4.790857 0L75.190857 304.018286c-4.022857 2.377143-8.009143 9.581714-8.009143 15.177143v63.195428l54.418286 31.195429V350.390857z" fill="#D5DAE0" p-id="12068"></path><path d="M121.6 421.595429c-1.609143 0-2.413714 0-4.022857-0.804572l-54.381714-31.195428a8.411429 8.411429 0 0 1-4.022858-7.204572V319.195429c0-8.777143 4.827429-18.395429 12.032-21.577143L527.213714 34.377143a12.8 12.8 0 0 1 11.995429-0.804572c0.804571 0 0.804571 0 1.572571 0.804572l54.418286 31.195428c1.609143 0.804571 3.218286 3.181714 4.022857 4.790858a6.217143 6.217143 0 0 1-1.609143 6.4 12.032 12.032 0 0 1-8.813714 3.181714L133.595429 342.381714c-1.609143 0.804571-4.022857 4.827429-4.022858 8.045715v63.158857a8.411429 8.411429 0 0 1-3.986285 7.204571c-1.572571 0.804571-2.377143 0.804571-3.986286 0.804572z m-46.409143-43.995429l38.4 22.418286V350.354286c0-8.777143 4.827429-18.395429 11.995429-21.577143l446.427428-258.413714-38.4-22.418286L79.213714 311.222857c-1.609143 0.804571-4.022857 4.827429-4.022857 8.045714v58.368z" fill="#B8BFCA" p-id="12069"></path><path d="M121.6 350.390857c0-5.595429 3.218286-12.8 8.009143-15.177143l456.009143-263.204571c1.572571-0.804571 3.986286-0.804571 4.754285 0l-54.381714-31.195429a5.12 5.12 0 0 0-4.790857 0L75.190857 304.018286c-4.022857 2.377143-8.009143 9.581714-8.009143 15.177143l54.418286 31.195428z" fill="#F2F4F6" p-id="12070"></path><path d="M593.590857 141.604571V78.409143c0-5.595429-3.181714-8.777143-8.009143-5.595429L129.609143 336.018286c-4.022857 2.377143-8.009143 9.581714-8.009143 15.177143v63.195428l471.990857-272.822857z" fill="#D5DAE0" p-id="12071"></path><path d="M121.6 421.595429c-1.609143 0-2.413714 0-4.022857-0.804572a8.411429 8.411429 0 0 1-3.986286-7.204571V350.390857c0-8.777143 4.827429-18.395429 11.995429-21.577143l456.045714-263.204571c4.754286-2.413714 9.581714-2.413714 12.8-0.804572 3.949714 2.413714 6.363429 7.204571 6.363429 13.604572v63.195428a8.411429 8.411429 0 0 1-4.022858 7.204572L124.854857 420.790857c-0.804571 0.804571-1.609143 0.804571-3.218286 0.804572z m464.018286-340.004572L133.558857 342.381714c-1.609143 0.804571-4.022857 4.827429-4.022857 8.045715v49.554285l456.045714-263.168V81.554286z" fill="#B8BFCA" p-id="12072"></path><path d="M204.544 330.934857m-14.321904 33.650445a36.571429 36.571429 0 1 0 28.643808-67.30089 36.571429 36.571429 0 1 0-28.643808 67.30089Z" fill="#FFFFFF" p-id="12073"></path><path d="M238.445714 311.442286m-14.321904 33.650445a36.571429 36.571429 0 1 0 28.643809-67.30089 36.571429 36.571429 0 1 0-28.643809 67.30089Z" fill="#FFFFFF" p-id="12074"></path><path d="M168.594286 350.902857m-14.321905 33.650445a36.571429 36.571429 0 1 0 28.643809-67.30089 36.571429 36.571429 0 1 0-28.643809 67.30089Z" fill="#FFFFFF" p-id="12075"></path><path d="M541.622857 447.195429l-60.013714 34.377142-59.209143 34.413715-59.977143 34.413714-59.245714 34.377143v-182.381714" fill="#FFFFFF" p-id="12076"></path><path d="M303.177143 592.822857c-1.572571 0-2.377143 0-3.986286-0.804571a8.411429 8.411429 0 0 1-4.022857-7.204572v-182.418285c0-4.790857 3.218286-8.009143 8.045714-8.009143 4.754286 0 7.972571 3.218286 7.972572 8.045714v168.777143l226.413714-130.413714c4.022857-2.377143 8.777143-0.804571 11.190857 3.218285 2.413714 3.986286 0.804571 8.777143-3.181714 11.190857L307.2 591.981714c-1.609143 0.804571-3.218286 0.804571-4.022857 0.804572z" fill="#B8BFCA" p-id="12077"></path><path d="M303.177143 528.018286l59.245714-94.427429 59.977143-14.409143 59.209143-74.386285 59.977143-14.409143v116.809143l-238.372572 137.618285z" fill="#F2F4F6" p-id="12078"></path><path d="M303.177143 592.822857c-1.572571 0-2.377143 0-3.986286-0.804571a8.411429 8.411429 0 0 1-4.022857-7.204572v-56.795428c0-1.609143 0.841143-3.218286 1.645714-4.022857l59.977143-94.390858c0.804571-1.609143 3.218286-3.218286 4.790857-3.218285l56.832-13.604572 57.6-71.972571a4.388571 4.388571 0 0 1 3.986286-2.413714l59.977143-14.409143c2.413714-0.804571 4.827429 0 7.204571 1.609143 1.609143 1.609143 3.218286 4.022857 3.218286 6.4v116.809142a8.411429 8.411429 0 0 1-4.022857 7.204572L307.2 591.981714c-1.609143 0.804571-3.181714 0.804571-4.022857 0.804572z m8.045714-62.427428v40.813714l222.354286-128.804572V340.809143l-47.177143 11.190857-57.6 72.009143a4.388571 4.388571 0 0 1-4.022857 2.377143l-56.795429 14.409143-56.795428 89.6z" fill="#B8BFCA" p-id="12079"></path><path d="M541.622857 470.418286c-4.827429 0-8.045714-3.218286-8.045714-8.045715v-15.177142c0-4.790857 3.218286-8.009143 8.045714-8.009143 4.754286 0 7.972571 3.218286 7.972572 8.045714v15.177143a8.045714 8.045714 0 0 1-8.009143 8.009143zM481.609143 504.795429c-4.827429 0-8.009143-3.181714-8.009143-8.009143v-15.177143c0-4.827429 3.181714-8.009143 8.009143-8.009143 4.790857 0 7.972571 3.181714 7.972571 8.009143v15.177143c0 4.827429-3.181714 8.045714-7.972571 8.045714zM422.4 539.209143c-4.790857 0-8.009143-3.218286-8.009143-8.009143v-15.213714c0-4.754286 3.218286-7.972571 8.009143-7.972572s8.009143 3.181714 8.009143 7.972572v15.213714a8.045714 8.045714 0 0 1-8.009143 8.009143zM362.422857 573.586286c-4.827429 0-8.045714-3.181714-8.045714-7.972572v-15.213714c0-4.790857 3.218286-8.009143 8.045714-8.009143 4.754286 0 7.972571 3.218286 7.972572 8.009143v15.213714c0 4.754286-3.181714 7.972571-8.009143 7.972572zM303.177143 608c-4.754286 0-7.972571-3.218286-7.972572-8.009143v-15.177143c0-4.827429 3.181714-8.045714 8.009143-8.045714 4.754286 0 7.972571 3.218286 7.972572 8.045714v15.177143a8.045714 8.045714 0 0 1-7.972572 8.009143z" fill="#B8BFCA" p-id="12080"></path><path d="M258.413714 611.181714v-182.381714l-84.845714 48.786286v182.418285z" fill="#FFFFFF" p-id="12081"></path><path d="M173.604571 668.013714c-1.609143 0-2.413714 0-4.022857-0.804571a8.411429 8.411429 0 0 1-3.986285-7.204572v-182.418285a8.411429 8.411429 0 0 1 4.022857-7.204572l84.772571-48.786285a7.277714 7.277714 0 0 1 8.009143 0 8.411429 8.411429 0 0 1 4.022857 7.204571v182.418286a8.411429 8.411429 0 0 1-4.022857 7.168l-84.809143 48.822857c-1.572571 0-3.181714 0.804571-4.022857 0.804571z m8.009143-185.6v163.986286l68.754286-40.009143v-163.986286l-68.754286 40.009143z" fill="#B8BFCA" p-id="12082"></path><path d="M258.413714 474.404571v-45.604571l-84.845714 48.786286v45.604571z" fill="#F2F4F6" p-id="12083"></path><path d="M173.604571 531.2c-1.609143 0-2.413714 0-4.022857-0.804571a8.411429 8.411429 0 0 1-3.986285-7.204572V477.622857a8.411429 8.411429 0 0 1 4.022857-7.168l84.772571-48.822857a7.277714 7.277714 0 0 1 8.009143 0 8.411429 8.411429 0 0 1 4.022857 7.204571v45.604572a8.411429 8.411429 0 0 1-4.022857 7.204571l-84.809143 48.786286c-1.572571 0-3.181714 0.804571-4.022857 0.804571z m8.009143-48.786286v27.172572l68.754286-39.972572v-27.209143l-68.754286 40.009143z" fill="#B8BFCA" p-id="12084"></path><path d="M126.390857 782.409143c-1.609143 0-3.181714 0-4.790857-0.804572-0.804571 0-0.804571 0-1.609143-0.804571l-54.381714-31.195429c-0.804571 0-0.804571-0.804571-1.609143-0.804571a15.652571 15.652571 0 0 1-5.595429-11.995429V319.195429c0-8.777143 4.790857-18.395429 11.995429-21.577143L526.409143 34.377143a12.8 12.8 0 0 1 11.995428-0.804572c0.804571 0 0.804571 0 1.609143 0.804572l54.381715 31.195428c0.804571 0 0.804571 0.804571 1.609142 0.804572a16.091429 16.091429 0 0 1 5.595429 12.8v416.768c0 8.813714-4.790857 18.432-11.995429 21.613714L133.595429 780.8c-2.413714 0.804571-4.790857 1.609143-7.204572 1.609143z m-51.2-46.409143l51.2 29.622857 455.204572-262.436571c1.609143-0.768 4.022857-4.754286 4.022857-7.972572V78.409143l-51.2-29.622857L79.213714 311.222857c-1.609143 0.804571-4.022857 4.827429-4.022857 8.045714v416.768z" fill="#627386" p-id="12085"></path><path d="M772.022857 176.786286l-54.418286-31.195429a5.12 5.12 0 0 0-4.790857 0L256.731429 408.795429c-3.949714 2.413714-7.972571 9.618286-7.972572 15.213714V840.777143c0 3.181714 0.804571 5.595429 2.413714 6.4l54.381715 31.195428 45.604571-86.418285 361.618286-244.004572c3.986286-2.377143 7.972571-9.581714 7.972571-15.177143V244.809143l51.2-68.022857z" fill="#FFFFFF" p-id="12086"></path><path d="M305.590857 886.418286c-1.609143 0-2.377143 0-4.022857-0.804572l-54.381714-31.232c-0.804571 0-0.804571-0.768-1.572572-0.768a16.091429 16.091429 0 0 1-5.632-12.8V424.009143c0-8.777143 4.827429-18.395429 12.032-21.577143l455.972572-263.241143a12.8 12.8 0 0 1 11.995428-0.804571c0.804571 0 0.804571 0 1.609143 0.804571l54.418286 31.195429c1.572571 0.804571 3.181714 3.218286 4.022857 5.632a6.217143 6.217143 0 0 1-1.645714 6.4L728.795429 247.954286v284.818285c0 8.777143-4.790857 18.395429-11.995429 21.577143l-359.204571 243.2-44.8 84.845715a8.192 8.192 0 0 1-4.790858 3.986285h-2.413714zM256.804571 840.777143l45.604572 26.368 41.581714-79.177143c0.804571-0.804571 1.609143-2.413714 2.413714-3.218286l361.581715-243.968c1.609143-0.804571 4.022857-4.827429 4.022857-8.813714V244.004571c0-1.609143 0.804571-3.218286 1.572571-4.790857l46.445715-61.622857-44.836572-25.6-454.4 264.009143c-1.609143 0.804571-4.022857 4.790857-4.022857 8.009143V840.777143z" fill="#B8BFCA" p-id="12087"></path><path d="M303.177143 876.8V382.390857l-46.372572 26.404572c-4.022857 2.413714-8.009143 9.618286-8.009142 15.213714V840.777143c0 3.181714 0.804571 5.595429 2.413714 6.4l52.004571 29.586286z" fill="#D3EDFD" p-id="12088"></path><path d="M767.195429 615.204571L311.222857 878.409143c-3.986286 2.377143-7.972571 0-7.972571-5.595429v-417.645714c0-5.558857 3.181714-12.8 7.972571-15.177143l456.045714-263.204571c3.949714-2.377143 7.972571 0 7.972572 5.595428v417.645715c0 5.558857-4.022857 11.958857-8.009143 15.177142z" fill="#FFFFFF" p-id="12089"></path><path d="M308.004571 887.222857c-2.413714 0-4.022857-0.841143-6.4-1.609143-4.022857-2.413714-6.4-7.204571-6.4-13.604571V455.204571c0-8.777143 4.790857-18.395429 11.995429-21.577142l456.009143-263.241143a14.628571 14.628571 0 0 1 12.8-0.804572c4.022857 2.413714 6.4 7.204571 6.4 13.604572v416.804571c0 8.777143-4.790857 18.395429-11.995429 21.577143l-456.045714 263.241143a9.069714 9.069714 0 0 1-6.363429 2.377143zM767.195429 186.368l-452.022858 260.790857c-1.572571 0.804571-3.986286 4.790857-3.986285 8.009143v413.622857l452.022857-260.827428c1.572571-0.804571 4.022857-4.790857 4.022857-8.009143V186.368z" fill="#91D2FB" p-id="12090"></path><path d="M303.177143 455.204571c0-5.595429 3.218286-12.8 8.045714-15.213714l455.972572-263.204571c1.609143-0.768 4.022857-0.768 4.790857 0l-54.381715-31.195429a5.12 5.12 0 0 0-4.790857 0L256.731429 408.795429c-3.949714 2.413714-7.972571 9.618286-7.972572 15.213714v63.195428l54.418286 31.195429v-63.195429z" fill="#BDE4FD" p-id="12091"></path><path d="M303.177143 526.409143c-1.572571 0-2.377143 0-3.986286-0.804572l-54.381714-31.195428a8.411429 8.411429 0 0 1-4.022857-7.204572v-63.195428c0-8.777143 4.827429-18.395429 12.032-21.577143L708.754286 139.154286a12.8 12.8 0 0 1 11.995428-0.804572c0.804571 0 0.804571 0 1.609143 0.804572l54.418286 31.195428c1.572571 0.804571 3.181714 3.218286 3.986286 4.827429a6.217143 6.217143 0 0 1-1.609143 6.4 8.886857 8.886857 0 0 1-8.777143 3.181714L315.209143 447.195429c-1.609143 0.804571-4.022857 4.790857-4.022857 8.009142v63.195429a8.411429 8.411429 0 0 1-3.986286 7.204571c-1.609143 0.804571-2.413714 0.804571-4.022857 0.804572zM256.841143 482.377143l38.4 22.381714v-49.590857c0-8.777143 4.790857-18.395429 11.995428-21.577143L754.395429 175.177143l-38.4-22.418286-455.204572 263.204572c-1.609143 0.804571-4.022857 4.790857-4.022857 8.009142v58.404572z" fill="#91D2FB" p-id="12092"></path><path d="M303.177143 455.204571c0-5.595429 3.218286-12.8 8.045714-15.213714l455.972572-263.204571c1.609143-0.768 4.022857-0.768 4.790857 0l-54.381715-31.195429a5.12 5.12 0 0 0-4.790857 0L256.731429 408.795429c-3.949714 2.413714-7.972571 9.618286-7.972572 15.213714v63.195428l54.418286 31.195429v-63.195429z" fill="#BDE4FD" p-id="12093"></path><path d="M303.177143 526.409143c-1.572571 0-2.377143 0-3.986286-0.804572l-54.381714-31.195428a8.411429 8.411429 0 0 1-4.022857-7.204572v-63.195428c0-8.777143 4.827429-18.395429 12.032-21.577143L708.754286 139.154286a12.8 12.8 0 0 1 11.995428-0.804572c0.804571 0 0.804571 0 1.609143 0.804572l54.418286 31.195428c1.572571 0.804571 3.181714 3.218286 3.986286 4.827429a6.217143 6.217143 0 0 1-1.609143 6.4 8.886857 8.886857 0 0 1-8.777143 3.181714L315.209143 447.195429c-1.609143 0.804571-4.022857 4.790857-4.022857 8.009142v63.195429a8.411429 8.411429 0 0 1-3.986286 7.204571c-1.609143 0.804571-2.413714 0.804571-4.022857 0.804572zM256.841143 482.377143l38.4 22.381714v-49.590857c0-8.777143 4.790857-18.395429 11.995428-21.577143L754.395429 175.177143l-38.4-22.418286-455.204572 263.204572c-1.609143 0.804571-4.022857 4.790857-4.022857 8.009142v58.404572z" fill="#91D2FB" p-id="12094"></path><path d="M303.177143 455.204571c0-5.595429 3.218286-12.8 8.045714-15.213714l455.972572-263.204571c1.609143-0.768 4.022857-0.768 4.790857 0l-54.381715-31.195429a5.12 5.12 0 0 0-4.790857 0L256.731429 408.795429c-3.949714 2.413714-7.972571 9.618286-7.972572 15.213714l54.418286 31.195428z" fill="#E9F6FE" p-id="12095"></path><path d="M775.204571 246.381714V183.222857c0-5.595429-3.218286-8.777143-8.009142-5.595428L311.222857 440.795429c-3.986286 2.413714-7.972571 9.618286-7.972571 15.213714v63.195428l471.990857-272.822857z" fill="#BDE4FD" p-id="12096"></path><path d="M303.177143 526.409143c-1.572571 0-2.377143 0-3.986286-0.804572a8.411429 8.411429 0 0 1-4.022857-7.204571v-63.195429c0-8.777143 4.827429-18.395429 12.032-21.577142l456.009143-263.241143a14.628571 14.628571 0 0 1 12.8-0.804572c4.022857 2.413714 6.4 7.204571 6.4 13.604572v63.195428a8.411429 8.411429 0 0 1-4.022857 7.204572L306.395429 525.604571c-0.804571 0.804571-1.609143 0.804571-3.181715 0.804572z m464.018286-340.004572l-452.022858 260.790858c-1.572571 0.804571-3.986286 4.790857-3.986285 8.009142v49.590858l456.045714-263.204572v-55.222857z" fill="#91D2FB" p-id="12097"></path><path d="M386.011429 435.858286m-14.321905 33.650445a36.571429 36.571429 0 1 0 28.643809-67.30089 36.571429 36.571429 0 1 0-28.643809 67.30089Z" fill="#FFFFFF" p-id="12098"></path><path d="M419.913143 416.365714m-14.321904 33.650445a36.571429 36.571429 0 1 0 28.643808-67.30089 36.571429 36.571429 0 1 0-28.643808 67.30089Z" fill="#FFFFFF" p-id="12099"></path><path d="M350.061714 455.789714m-14.321904 33.650445a36.571429 36.571429 0 1 0 28.643809-67.30089 36.571429 36.571429 0 1 0-28.643809 67.30089Z" fill="#FFFFFF" p-id="12100"></path><path d="M723.2 552.009143l-59.977143 34.377143-59.245714 34.413714-59.977143 34.377143-59.209143 34.413714V507.245714" fill="#FFFFFF" p-id="12101"></path><path d="M484.790857 697.6c-1.609143 0-2.377143 0-4.022857-0.804571a8.411429 8.411429 0 0 1-3.986286-7.204572V507.245714c0-4.827429 3.218286-8.009143 8.045715-8.009143 4.754286 0 7.972571 3.181714 7.972571 8.009143v168.777143l226.377143-130.377143c4.022857-2.413714 8.813714-0.804571 11.227428 3.181715 2.377143 4.022857 0.804571 8.777143-3.218285 11.190857l-238.372572 136.813714c-1.609143 0.804571-2.413714 0.804571-4.022857 0.804571z" fill="#B8BFCA" p-id="12102"></path><path d="M484.790857 632.795429l59.209143-94.390858 59.977143-14.409142 59.245714-74.386286 59.977143-14.409143v116.809143l-238.409143 137.581714z" fill="#F2F4F6" p-id="12103"></path><path d="M484.790857 697.6c-1.609143 0-2.377143 0-4.022857-0.804571a8.411429 8.411429 0 0 1-3.986286-7.204572v-57.6c0-1.572571 0.804571-3.181714 1.609143-4.022857l59.977143-94.354286c0.841143-1.609143 3.218286-3.218286 4.827429-3.218285l56.795428-13.604572 57.6-72.009143a4.388571 4.388571 0 0 1 4.022857-2.377143l59.172572-14.409142c2.413714-0.804571 4.827429 0 7.204571 1.609142 1.609143 1.609143 3.218286 4.022857 3.218286 6.4v116.004572a8.411429 8.411429 0 0 1-4.022857 7.204571l-238.372572 137.581715c-1.609143 0.804571-2.413714 0.804571-4.022857 0.804571z m8.009143-62.390857v40.777143l222.390857-128.804572v-101.595428l-47.177143 11.227428-57.6 71.972572a4.388571 4.388571 0 0 1-4.022857 2.413714l-56.795428 13.604571-56.795429 90.404572z" fill="#B8BFCA" p-id="12104"></path><path d="M723.2 575.195429c-4.790857 0-8.009143-3.181714-8.009143-8.009143v-15.177143c0-4.790857 3.218286-8.009143 8.009143-8.009143s8.009143 3.181714 8.009143 8.009143v15.177143a8.045714 8.045714 0 0 1-8.009143 8.045714zM663.186286 609.609143c-4.754286 0-7.972571-3.218286-7.972572-8.009143v-15.213714c0-4.754286 3.181714-7.972571 7.972572-7.972572 4.827429 0 8.045714 3.181714 8.045714 7.972572v15.213714c0 4.790857-3.218286 8.009143-8.045714 8.009143zM604.013714 644.022857c-4.827429 0-8.045714-3.218286-8.045714-8.045714v-15.177143c0-4.790857 3.218286-8.009143 8.045714-8.009143 4.754286 0 7.972571 3.218286 7.972572 8.009143v15.213714a8.045714 8.045714 0 0 1-7.972572 7.972572zM544 678.4c-4.790857 0-8.009143-3.181714-8.009143-8.009143v-15.177143c0-4.827429 3.218286-8.045714 8.009143-8.045714s8.009143 3.218286 8.009143 8.045714v15.177143c0 4.827429-3.218286 8.009143-8.009143 8.009143zM484.790857 712.777143c-4.790857 0-8.009143-3.181714-8.009143-7.972572v-15.213714c0-4.790857 3.218286-7.972571 8.045715-7.972571 4.754286 0 7.972571 3.181714 7.972571 7.972571v15.213714a8.045714 8.045714 0 0 1-8.009143 8.009143z" fill="#B8BFCA" p-id="12105"></path><path d="M439.990857 715.995429v-182.381715l-84.809143 48.786286v182.418286z" fill="#FFFFFF" p-id="12106"></path><path d="M355.218286 772.790857c-1.609143 0-2.413714 0-4.022857-0.804571a8.411429 8.411429 0 0 1-4.022858-7.204572v-182.381714a8.411429 8.411429 0 0 1 4.022858-7.204571l84.809142-48.786286a7.277714 7.277714 0 0 1 8.009143 0 8.411429 8.411429 0 0 1 3.986286 7.204571v182.381715a8.411429 8.411429 0 0 1-4.022857 7.204571l-84.772572 48.786286c-1.609143 0-2.413714 0.804571-4.022857 0.804571z m7.972571-185.6v164.022857l68.827429-40.009143v-163.986285L363.154286 587.190857z" fill="#91D2FB" p-id="12107"></path><path d="M439.990857 579.218286V533.577143l-84.809143 48.786286v45.604571z" fill="#FFFFFF" p-id="12108"></path><path d="M355.218286 635.977143c-1.609143 0-2.413714 0-4.022857-0.768a8.411429 8.411429 0 0 1-4.022858-7.204572v-45.604571a8.411429 8.411429 0 0 1 4.022858-7.204571l84.809142-48.786286a7.277714 7.277714 0 0 1 8.009143 0 8.411429 8.411429 0 0 1 3.986286 7.204571v45.604572a8.411429 8.411429 0 0 1-4.022857 7.168L359.241143 635.245714c-1.609143 0-2.413714 0.804571-4.022857 0.804572z m7.972571-48.786286v27.209143l68.827429-40.009143v-27.209143L363.154286 587.190857z" fill="#91D2FB" p-id="12109"></path><path d="M439.990857 579.218286V533.577143l-84.809143 48.786286v45.604571z" fill="#D3EDFD" p-id="12110"></path><path d="M355.218286 635.977143c-1.609143 0-2.413714 0-4.022857-0.768a8.411429 8.411429 0 0 1-4.022858-7.204572v-45.604571a8.411429 8.411429 0 0 1 4.022858-7.204571l84.809142-48.786286a7.277714 7.277714 0 0 1 8.009143 0 8.411429 8.411429 0 0 1 3.986286 7.204571v45.604572a8.411429 8.411429 0 0 1-4.022857 7.168L359.241143 635.245714c-1.609143 0-2.413714 0.804571-4.022857 0.804572z m7.972571-48.786286v27.209143l68.827429-40.009143v-27.209143L363.154286 587.190857z" fill="#91D2FB" p-id="12111"></path><path d="M308.004571 887.222857c-1.609143 0-3.218286 0-4.790857-0.841143-0.804571 0-0.804571 0-1.609143-0.768l-54.418285-31.232c-0.768 0-0.768-0.768-1.572572-0.768a16.091429 16.091429 0 0 1-5.595428-12.8V424.009143c0-8.777143 4.754286-18.395429 11.995428-21.577143l455.972572-263.241143a12.8 12.8 0 0 1 11.995428-0.804571c0.804571 0 0.804571 0 1.609143 0.804571l54.418286 31.195429c0.804571 0 0.804571 0.804571 1.572571 0.804571a16.091429 16.091429 0 0 1 5.632 12.8v416c0 8.777143-4.827429 18.395429-12.032 21.577143L315.245714 884.845714a12.909714 12.909714 0 0 1-7.204571 2.377143z m-51.2-46.445714l51.2 29.622857 455.204572-262.4c1.572571-0.804571 4.022857-4.790857 4.022857-8.009143V183.222857l-51.2-29.586286L260.754286 416c-1.609143 0.804571-4.022857 4.790857-4.022857 8.009143V840.777143z" fill="#1B6DC6" p-id="12112"></path><path d="M953.6 281.6l-54.381714-31.195429a5.12 5.12 0 0 0-4.827429 0l-456.009143 263.204572c-3.986286 2.377143-7.972571 9.581714-7.972571 15.177143v416.804571c0 3.218286 0.804571 5.595429 2.377143 6.4l54.418285 31.195429 45.604572-86.381715 361.581714-244.004571c4.022857-2.413714 8.009143-9.581714 8.009143-15.213714V349.622857l51.2-67.986286z" fill="#FFFFFF" p-id="12113"></path><path d="M488.009143 991.195429c-1.609143 0-2.413714 0-4.022857-0.804572l-54.381715-31.195428c-0.804571 0-0.804571-0.804571-1.609142-0.804572a16.091429 16.091429 0 0 1-5.595429-12.8V528.822857c0-8.777143 4.790857-18.395429 11.995429-21.577143l456.009142-263.204571a12.8 12.8 0 0 1 11.995429-0.804572c0.804571 0 0.804571 0 1.609143 0.804572l54.381714 31.195428c1.609143 0.804571 3.218286 3.218286 4.022857 5.595429a6.217143 6.217143 0 0 1-1.609143 6.4L911.213714 353.645714v284.781715c0 8.777143-4.827429 18.395429-11.995428 21.577142l-359.204572 242.432-44.8 84.809143a8.192 8.192 0 0 1-4.827428 4.022857h-2.377143z m-49.590857-45.604572l45.568 26.404572 41.618285-79.177143c0.804571-0.804571 1.609143-2.413714 2.377143-3.218286l361.618286-244.004571c1.609143-0.804571 4.022857-4.790857 4.022857-8.777143V348.818286c0-1.609143 0.768-3.218286 1.572572-4.827429l46.409142-61.586286-44.8-25.6-454.4 264.009143c-1.609143 0.804571-4.022857 4.754286-4.022857 7.972572v416.804571z" fill="#B8BFCA" p-id="12114"></path><path d="M484.790857 981.577143V487.241143l-46.409143 26.404571c-3.986286 2.377143-7.972571 9.581714-7.972571 15.177143v416.804572c0 3.218286 0.804571 5.595429 2.377143 6.4l52.004571 29.622857z" fill="#F2F4F6" p-id="12115"></path><path d="M948.809143 720.018286l-456.009143 263.168c-4.022857 2.413714-8.009143 0-8.009143-5.595429V559.981714c0-5.595429 3.218286-12.8 8.009143-15.177143L948.809143 281.6c4.022857-2.413714 8.009143 0 8.009143 5.595429V704c0 6.4-4.022857 13.604571-8.045715 16.018286z" fill="#FFFFFF" p-id="12116"></path><path d="M489.581714 992c-2.377143 0-3.986286-0.804571-6.4-1.609143-3.986286-2.377143-6.4-7.204571-6.4-13.604571V560.018286c0-8.813714 4.827429-18.432 12.032-21.613715l455.972572-263.204571c4.827429-2.413714 9.618286-2.413714 12.8-0.804571 4.022857 2.413714 6.4 7.204571 6.4 13.604571v416.804571c0 8.777143-4.754286 18.395429-11.995429 21.577143L495.981714 989.622857a9.069714 9.069714 0 0 1-6.4 2.413714zM948.809143 291.181714l-452.022857 260.827429c-1.572571 0.804571-3.986286 4.790857-3.986286 8.009143v413.586285l452.022857-260.790857c1.572571-0.804571 3.986286-4.827429 3.986286-8.045714V291.254857z" fill="#B8BFCA" p-id="12117"></path><path d="M904.777143 656.822857l-59.172572 35.181714-59.977142 34.377143-59.245715 34.413715-59.977143 34.377142v-183.186285" fill="#FFFFFF" p-id="12118"></path><path d="M666.404571 803.181714c-1.609143 0-2.413714 0-4.022857-0.768a8.411429 8.411429 0 0 1-3.986285-7.204571v-183.222857c0-4.754286 3.218286-7.972571 8.009142-7.972572s8.009143 3.181714 8.009143 7.972572v168.813714l226.377143-130.413714c4.022857-2.377143 8.777143-0.768 11.227429 3.218285 2.377143 4.022857 0.768 8.777143-3.218286 11.190858l-238.409143 137.618285c-1.572571 0-2.377143 0.768-4.022857 0.768z" fill="#B8BFCA" p-id="12119"></path><path d="M666.404571 737.609143l59.977143-94.427429 59.245715-14.372571 59.977142-74.422857 59.209143-14.372572v116.772572l-238.445714 138.422857z" fill="#F2F4F6" p-id="12120"></path><path d="M666.404571 803.181714c-1.609143 0-2.413714 0-4.022857-0.768a8.411429 8.411429 0 0 1-3.986285-7.204571v-57.6c0-1.609143 0.804571-3.218286 1.609142-4.022857l59.977143-94.354286c0.804571-1.645714 3.218286-3.218286 4.827429-3.218286l56.795428-13.604571 57.6-72.009143a4.388571 4.388571 0 0 1 4.022858-2.413714l59.977142-14.372572c2.413714-0.804571 4.790857 0 7.204572 1.572572 2.377143 1.609143 3.181714 4.022857 3.181714 6.4v116.809143a8.411429 8.411429 0 0 1-4.022857 7.204571l-238.372571 137.581714c-2.377143-0.768-3.181714 0-4.790858 0z m8.009143-63.195428v40.813714l222.354286-128.804571V550.4l-47.177143 11.190857-57.6 72.009143a4.388571 4.388571 0 0 1-4.022857 2.413714l-56.758857 13.604572-56.795429 90.368z" fill="#B8BFCA" p-id="12121"></path><path d="M904.777143 680.009143c-4.754286 0-7.972571-3.218286-7.972572-8.009143v-15.213714c0-4.754286 3.181714-7.972571 8.009143-7.972572 4.754286 0 7.972571 3.181714 7.972572 7.972572v15.213714c0 4.790857-3.181714 8.009143-7.972572 8.009143zM845.604571 714.386286c-4.790857 0-8.009143-3.181714-8.009142-7.972572V691.2c0-4.790857 3.218286-8.009143 8.009142-8.009143s8.009143 3.218286 8.009143 8.009143v15.213714a8.045714 8.045714 0 0 1-8.045714 7.972572zM785.590857 748.8c-4.790857 0-8.009143-3.181714-8.009143-8.009143v-15.177143c0-4.827429 3.218286-8.045714 8.045715-8.045714 4.754286 0 7.972571 3.218286 7.972571 8.045714v15.177143c0 4.827429-3.218286 8.009143-8.009143 8.009143zM726.418286 783.213714c-4.827429 0-8.045714-3.218286-8.045715-8.045714v-15.177143c0-4.790857 3.218286-7.972571 8.045715-7.972571 4.754286 0 7.972571 3.181714 7.972571 7.972571v15.213714a8.045714 8.045714 0 0 1-7.972571 8.009143zM666.404571 817.590857c-4.790857 0-8.009143-3.181714-8.009142-8.009143v-15.177143c0-4.790857 3.218286-8.009143 8.009142-8.009142s8.009143 3.218286 8.009143 8.009142v15.177143c0 4.827429-3.218286 8.045714-8.045714 8.045715z" fill="#B8BFCA" p-id="12122"></path><path d="M621.604571 820.809143v-182.418286l-84.809142 48.822857v182.381715z" fill="#FFFFFF" p-id="12123"></path><path d="M536.795429 877.604571c-1.609143 0-2.413714 0-4.022858-0.804571a8.411429 8.411429 0 0 1-3.986285-7.204571v-182.381715a8.411429 8.411429 0 0 1 4.022857-7.204571l84.772571-48.822857a7.277714 7.277714 0 0 1 8.045715 0 8.411429 8.411429 0 0 1 3.986285 7.204571v182.418286a8.411429 8.411429 0 0 1-4.022857 7.204571l-84.809143 48.786286c-1.572571 0.804571-2.377143 0.804571-3.986285 0.804571z m8.009142-185.6v163.986286l68.790858-39.972571v-164.022857l-68.790858 40.009142z" fill="#B8BFCA" p-id="12124"></path><path d="M621.604571 683.995429v-45.604572l-84.809142 48.822857v45.604572z" fill="#F2F4F6" p-id="12125"></path><path d="M536.795429 740.790857c-1.609143 0-2.413714 0-4.022858-0.804571a8.411429 8.411429 0 0 1-3.986285-7.204572v-45.568a8.411429 8.411429 0 0 1 4.022857-7.204571l84.772571-48.822857a7.277714 7.277714 0 0 1 8.045715 0 8.411429 8.411429 0 0 1 3.986285 7.204571v45.604572a8.411429 8.411429 0 0 1-4.022857 7.204571l-84.809143 48.786286c-1.572571 0.804571-2.377143 0.804571-3.986285 0.804571z m8.009142-48.786286v27.209143l68.790858-40.009143v-27.209142l-68.790858 40.009142z" fill="#B8BFCA" p-id="12126"></path><path d="M484.790857 560.018286c0-5.632 3.218286-12.8 8.009143-15.213715L948.809143 281.6c1.609143-0.804571 4.022857-0.804571 4.790857 0l-54.381714-31.195429a5.12 5.12 0 0 0-4.827429 0l-455.972571 263.204572c-4.022857 2.377143-8.045714 9.581714-8.045715 15.177143v63.232l54.418286 31.195428v-63.232z" fill="#D5DAE0" p-id="12127"></path><path d="M484.790857 631.222857c-1.609143 0-2.377143 0-4.022857-0.841143l-54.381714-31.195428a8.411429 8.411429 0 0 1-3.986286-7.204572V528.822857c0-8.777143 4.790857-18.395429 11.995429-21.577143l456.009142-263.204571a12.8 12.8 0 0 1 11.995429-0.804572c0.804571 0 0.804571 0 1.609143 0.804572l54.381714 31.195428c1.609143 0.804571 3.218286 3.218286 4.022857 4.790858a6.217143 6.217143 0 0 1-1.609143 6.4 8.886857 8.886857 0 0 1-8.777142 3.218285l-455.241143 262.4c-1.572571 0.804571-3.986286 4.790857-3.986286 8.009143v63.195429a8.411429 8.411429 0 0 1-4.022857 7.168c-0.768 0.804571-2.377143 0.804571-3.986286 0.804571z m-46.409143-44.032l38.4 22.418286v-49.627429c0-8.777143 4.827429-18.395429 12.032-21.577143l447.195429-258.413714-38.4-22.381714-455.204572 263.204571c-1.609143 0.768-4.022857 4.754286-4.022857 7.972572v58.404571z" fill="#B8BFCA" p-id="12128"></path><path d="M484.790857 560.018286c0-5.632 3.218286-12.8 8.009143-15.213715L948.809143 281.6c1.609143-0.804571 4.022857-0.804571 4.790857 0l-54.381714-31.195429a5.12 5.12 0 0 0-4.827429 0l-455.972571 263.204572c-4.022857 2.377143-8.045714 9.581714-8.045715 15.177143l54.418286 31.232z" fill="#F2F4F6" p-id="12129"></path><path d="M956.818286 351.195429V288c0-5.595429-3.218286-8.777143-8.045715-5.595429l-455.972571 263.204572c-4.022857 2.377143-8.009143 9.581714-8.009143 15.177143v63.195428l472.027429-272.786285z" fill="#D5DAE0" p-id="12130"></path><path d="M484.790857 631.222857c-1.609143 0-2.377143 0-4.022857-0.841143a8.411429 8.411429 0 0 1-3.986286-7.168v-63.232c0-8.777143 4.827429-18.395429 12.032-21.577143l455.972572-263.204571c4.827429-2.413714 9.618286-2.413714 12.8-0.804571 4.022857 2.413714 6.4 7.204571 6.4 13.604571v63.195429a8.411429 8.411429 0 0 1-3.986286 7.204571l-471.990857 271.981714c0 0.804571-1.609143 0.804571-3.218286 0.804572z m464.018286-340.041143l-452.022857 260.827429c-1.572571 0.804571-3.986286 4.790857-3.986286 7.972571v49.627429l456.009143-263.204572v-55.222857z" fill="#B8BFCA" p-id="12131"></path><path d="M568.305678 540.595936m-14.321904 33.650445a36.571429 36.571429 0 1 0 28.643808-67.30089 36.571429 36.571429 0 1 0-28.643808 67.30089Z" fill="#FFFFFF" p-id="12132"></path><path d="M601.344 521.216m-14.321904 33.650445a36.571429 36.571429 0 1 0 28.643808-67.30089 36.571429 36.571429 0 1 0-28.643808 67.30089Z" fill="#FFFFFF" p-id="12133"></path><path d="M532.370286 561.846857m-14.321905 33.650445a36.571429 36.571429 0 1 0 28.643809-67.30089 36.571429 36.571429 0 1 0-28.643809 67.30089Z" fill="#FFFFFF" p-id="12134"></path><path d="M489.581714 992c-1.572571 0-3.181714 0-4.754285-0.804571-0.841143 0-0.841143 0-1.645715-0.804572l-54.381714-31.195428c-0.804571 0-0.804571-0.804571-1.609143-0.804572a16.091429 16.091429 0 0 1-5.595428-12.8V528.822857c0-8.777143 4.790857-18.395429 11.995428-21.577143l456.009143-263.204571a12.8 12.8 0 0 1 11.995429-0.804572c0.804571 0 0.804571 0 1.609142 0.804572l54.381715 31.195428c0.804571 0 0.804571 0.804571 1.609143 0.804572a15.652571 15.652571 0 0 1 5.595428 11.995428v416.804572c0 8.777143-4.790857 18.395429-11.995428 21.577143L496.786286 989.622857a12.909714 12.909714 0 0 1-7.204572 2.413714z m-51.2-46.409143l51.2 29.622857 455.204572-262.4c1.609143-0.804571 4.022857-4.827429 4.022857-8.045714V288.036571l-51.2-29.622857-455.204572 262.436572c-1.609143 0.804571-4.022857 4.754286-4.022857 7.972571v416.804572z" fill="#627386" p-id="12135"></path></svg>