<?xml version="1.0" standalone="no"?><!DOCTYPE svg PUBLIC "-//W3C//DTD SVG 1.1//EN" "http://www.w3.org/Graphics/SVG/1.1/DTD/svg11.dtd"><svg t="1764835488744" class="icon" viewBox="0 0 1024 1024" version="1.1" xmlns="http://www.w3.org/2000/svg" p-id="2672" xmlns:xlink="http://www.w3.org/1999/xlink" width="256" height="256"><path d="M858.666667 344.853333H266.08a53.333333 53.333333 0 0 0-52.373333 43.306667l-24.64 128.426667a1.066667 1.066667 0 0 1-2.133334 0V202.666667a21.333333 21.333333 0 0 1 21.333334-21.333334h140.906666a5.333333 5.333333 0 0 1 3.946667 1.706667L440.48 277.333333a5.333333 5.333333 0 0 0 3.946667 1.706667H874.666667a5.333333 5.333333 0 0 0 5.333333-5.333333v-64a5.333333 5.333333 0 0 0-5.333333-5.333334H482.4a5.333333 5.333333 0 0 1-3.893333-1.706666L391.146667 108.373333a5.333333 5.333333 0 0 0-3.946667-1.706666H165.333333a53.333333 53.333333 0 0 0-53.333333 53.333333v571.253333a5.333333 5.333333 0 0 0 5.333333 5.333334h101.333334a5.333333 5.333333 0 0 0 5.333333-4.266667l56.586667-295.466667a21.333333 21.333333 0 0 1 20.96-17.333333h505.44a21.333333 21.333333 0 0 1 20.96 25.386667l-73.386667 380.48a21.333333 21.333333 0 0 1-20.96 17.28H251.04a5.333333 5.333333 0 0 0-5.333333 5.333333v64a5.333333 5.333333 0 0 0 5.333333 5.333333h518.026667a53.333333 53.333333 0 0 0 52.373333-43.306666l89.333333-465.813334A53.333333 53.333333 0 0 0 858.666667 344.853333z" p-id="2673" fill="#ffffff"></path></svg>