<?xml version="1.0" standalone="no"?><!DOCTYPE svg PUBLIC "-//W3C//DTD SVG 1.1//EN" "http://www.w3.org/Graphics/SVG/1.1/DTD/svg11.dtd"><svg t="1764643371393" class="icon" viewBox="0 0 1024 1024" version="1.1" xmlns="http://www.w3.org/2000/svg" p-id="4947" xmlns:xlink="http://www.w3.org/1999/xlink" width="256" height="256"><path d="M873.386667 320l31.146666-31.146667a42.666667 42.666667 0 0 0-62.72-62.72L810.666667 256l-31.146667-31.146667a42.666667 42.666667 0 0 0-62.72 64l31.146667 31.146667-31.146667 31.146667a42.666667 42.666667 0 0 0 62.72 62.72L810.666667 384l31.146666 31.146667a42.666667 42.666667 0 0 0 62.72-64zM426.666667 469.333333a170.666667 170.666667 0 1 0-170.666667-170.666666 170.666667 170.666667 0 0 0 170.666667 170.666666zM682.666667 896a42.666667 42.666667 0 0 0 42.666666-42.666667 298.666667 298.666667 0 0 0-597.333333 0 42.666667 42.666667 0 0 0 42.666667 42.666667z" p-id="4948"></path></svg>