<?xml version="1.0" standalone="no"?><!DOCTYPE svg PUBLIC "-//W3C//DTD SVG 1.1//EN" "http://www.w3.org/Graphics/SVG/1.1/DTD/svg11.dtd"><svg t="1764643375900" class="icon" viewBox="0 0 1024 1024" version="1.1" xmlns="http://www.w3.org/2000/svg" p-id="5108" xmlns:xlink="http://www.w3.org/1999/xlink" width="256" height="256"><path d="M924.16 181.333333a42.666667 42.666667 0 0 0-60.16 3.84l-79.786667 91.733334-26.88-30.293334a42.666667 42.666667 0 0 0-64 56.746667l59.306667 66.56a42.666667 42.666667 0 0 0 32 14.08 42.666667 42.666667 0 0 0 31.573333-14.506667l111.36-128a42.666667 42.666667 0 0 0-3.413333-60.16zM426.666667 469.333333a170.666667 170.666667 0 1 0-170.666667-170.666666 170.666667 170.666667 0 0 0 170.666667 170.666666zM682.666667 896a42.666667 42.666667 0 0 0 42.666666-42.666667 298.666667 298.666667 0 0 0-597.333333 0 42.666667 42.666667 0 0 0 42.666667 42.666667" p-id="5109"></path></svg>