<?xml version="1.0" standalone="no"?><!DOCTYPE svg PUBLIC "-//W3C//DTD SVG 1.1//EN" "http://www.w3.org/Graphics/SVG/1.1/DTD/svg11.dtd"><svg t="1764264402622" class="icon" viewBox="0 0 1024 1024" version="1.1" xmlns="http://www.w3.org/2000/svg" p-id="5720" xmlns:xlink="http://www.w3.org/1999/xlink" width="200" height="200"><path d="M271.644444 743.822222l-34.133333 34.133334c75.377778 75.377778 174.933333 113.777778 274.488889 113.777777s199.111111-38.4 274.488889-113.777777l-34.133333-34.133334c-132.266667 132.266667-348.444444 132.266667-480.711112 0z" fill="#222B45" p-id="5721"></path><path d="M315.733333 699.733333c52.622222 52.622222 122.311111 81.066667 196.266667 81.066667s143.644444-28.444444 196.266667-81.066667l-34.133334-34.133333c-42.666667 42.666667-100.977778 66.844444-162.133333 66.844444s-118.044444-24.177778-162.133333-66.844444l-34.133334 34.133333zM624.355556 615.822222l-34.133334-34.133333c-42.666667 42.666667-112.355556 42.666667-155.022222 0l-34.133333 34.133333c31.288889 31.288889 71.111111 45.511111 112.355555 45.511111s81.066667-15.644444 112.355556-45.511111zM913.066667 310.044444H732.444444v-113.777777c0-35.555556-28.444444-65.422222-65.422222-65.422223H356.977778c-35.555556 0-65.422222 28.444444-65.422222 65.422223v113.777777H110.933333c-24.177778 0-44.088889 19.911111-44.088889 44.088889v123.733334c0 24.177778 19.911111 44.088889 44.088889 44.088889h802.133334c24.177778 0 44.088889-19.911111 44.088889-44.088889v-123.733334c0-24.177778-19.911111-44.088889-44.088889-44.088889z m-573.155556-112.355555c0-9.955556 7.111111-17.066667 17.066667-17.066667h310.044444c9.955556 0 17.066667 7.111111 17.066667 17.066667v99.555555H341.333333v-99.555555z m568.888889 277.333333H115.2v-116.622222H910.222222v116.622222z" fill="#222B45" p-id="5722"></path><path d="M283.022222 456.533333c22.755556 0 39.822222-18.488889 39.822222-39.822222s-18.488889-39.822222-39.822222-39.822222-39.822222 18.488889-39.822222 39.822222 18.488889 39.822222 39.822222 39.822222zM435.2 456.533333c22.755556 0 39.822222-18.488889 39.822222-39.822222s-18.488889-39.822222-39.822222-39.822222-39.822222 18.488889-39.822222 39.822222 18.488889 39.822222 39.822222 39.822222zM588.8 456.533333c22.755556 0 39.822222-18.488889 39.822222-39.822222s-18.488889-39.822222-39.822222-39.822222-39.822222 18.488889-39.822222 39.822222 18.488889 39.822222 39.822222 39.822222zM740.977778 456.533333c22.755556 0 39.822222-18.488889 39.822222-39.822222s-18.488889-39.822222-39.822222-39.822222-39.822222 18.488889-39.822222 39.822222 18.488889 39.822222 39.822222 39.822222z" fill="#222B45" p-id="5723"></path></svg>